<svg width="361" height="453" viewBox="0 0 361 453" fill="none" xmlns="http://www.w3.org/2000/svg">
<path d="M138.033 25.8261L181.033 0L225.533 25.8261V75.5L261.033 98L225.533 118.5L181.033 90L138.033 118.5L103.533 98L138.033 75.5V25.8261Z" fill="#1E1E1E"/>
<circle cx="181.533" cy="47.5" r="17" fill="white"/>
<path d="M226.533 426.174L183.533 452L139.033 426.174V376.5L103.533 354L139.033 333.5L183.533 362L226.533 333.5L261.033 354L226.533 376.5V426.174Z" fill="#1E1E1E" stroke="black"/>
<circle cx="183.033" cy="404.5" r="17" transform="rotate(-180 183.033 404.5)" fill="white"/>
<path d="M104.624 245.433L131.692 229.805L217.972 279.829L190.801 295.516L104.624 245.433Z" fill="url(#paint0_linear_3_30)" stroke="black"/>
<path d="M146.07 180.633L173.268 196.335L89.6519 244.399L62.3617 228.644L146.07 180.633Z" fill="url(#paint1_linear_3_30)" stroke="black"/>
<path d="M359.645 186.098L352.68 126.033L304.145 89.9691L188.209 156.464L215.345 172.131L306.255 119.834L330.041 138.821L334.592 168.914L188.183 253.443L215.591 269.268L359.645 186.098Z" fill="url(#paint2_linear_3_30)" stroke="black"/>
<path d="M56.5366 89.1031L8.00202 125.167L1.03662 185.232L60.7687 219.946L87.7722 204.356L25.8459 168.472L30.3963 138.379L54.1821 119.392L229.558 220.645L256.966 204.821L56.5366 89.1031Z" fill="url(#paint3_linear_3_30)" stroke="black"/>
<path d="M8.00202 325.033L56.5366 361.098L172.591 294.094L145.183 278.27L79.2968 316.309L55.6024 297.269L50.7053 266.787L89.6519 244.399L62.3617 228.643L0.536621 264.103L4.2693 294.568L8.00202 325.033Z" fill="url(#paint4_linear_3_30)" stroke="black"/>
<path d="M306.567 297.827L311.209 267.787L272.558 245.471L299.966 229.647L359.645 264.103L352.68 324.167L303.646 361.098L247.223 328.307L190.801 295.516L217.972 279.829L282.617 317.309L306.567 297.827Z" fill="url(#paint5_linear_3_30)" stroke="black"/>
<circle cx="33.533" cy="310.5" r="17" transform="rotate(-180 33.533 310.5)" fill="white"/>
<circle cx="327.533" cy="310.5" r="17" transform="rotate(-180 327.533 310.5)" fill="white"/>
<defs>
<linearGradient id="paint0_linear_3_30" x1="161.298" y1="229.805" x2="161.298" y2="295.516" gradientUnits="userSpaceOnUse">
<stop stop-color="#4A4A4A"/>
<stop offset="1" stop-color="#1E1E1E"/>
</linearGradient>
<linearGradient id="paint1_linear_3_30" x1="117.815" y1="180.633" x2="117.815" y2="244.399" gradientUnits="userSpaceOnUse">
<stop stop-color="#D9D9D9"/>
<stop offset="1" stop-color="#737373"/>
</linearGradient>
<linearGradient id="paint2_linear_3_30" x1="273.914" y1="89.9691" x2="273.914" y2="269.268" gradientUnits="userSpaceOnUse">
<stop stop-color="#4A4A4A"/>
<stop offset="1" stop-color="#1E1E1E"/>
</linearGradient>
<linearGradient id="paint3_linear_3_30" x1="129.001" y1="89.1031" x2="129.001" y2="220.645" gradientUnits="userSpaceOnUse">
<stop stop-color="#D9D9D9"/>
<stop offset="1" stop-color="#737373"/>
</linearGradient>
<linearGradient id="paint4_linear_3_30" x1="86.5638" y1="228.643" x2="86.5638" y2="361.098" gradientUnits="userSpaceOnUse">
<stop stop-color="#BA582F"/>
<stop offset="0.5" stop-color="#CF5D2D"/>
<stop offset="1" stop-color="#BA582F"/>
</linearGradient>
<linearGradient id="paint5_linear_3_30" x1="275.223" y1="229.647" x2="275.223" y2="361.098" gradientUnits="userSpaceOnUse">
<stop stop-color="#BA582F"/>
<stop offset="0.5" stop-color="#CF5D2D"/>
<stop offset="1" stop-color="#BA582F"/>
</linearGradient>
</defs>
</svg>
